#Comment line ignore any data following # character 
#Hierarchical Translation and Rotation (.htr) file 
[Header]	
#Header keywords are followed by a single value 
FileType HTR		#Single word string
DataType HTRS		#Translation followed by rotation and scale data
FileVersion 1		#integer
NumSegments 84		#integer
NumFrames 2		#integer
DataFrameRate 30		#integer, data frame rate in this file
EulerRotationOrder ZYX
CalibrationUnits mm
RotationUnits Degrees
GlobalAxisofGravity Y
BoneLengthAxis Y
ScaleFactor 1.00
[SegmentNames&Hierarchy]
#CHILD	PARENT
MASTER GLOBAL
root MASTER
chest root
L_mid_tent01 root
R_mid_tent01 root
spine01 root
Bip01_Neck chest
L_humerus chest
R_humerus chest
weapon_bone chest
Bip01_Head Bip01_Neck
eye_left_bone Bip01_Head
eye_right_bone Bip01_Head
L_forearm L_humerus
L_front_hand L_forearm
L_weapon_bone L_forearm
L_front_hand01_01 L_front_hand
L_front_hand02_01 L_front_hand
L_front_hand03_01 L_front_hand
L_front_hand01_02 L_front_hand01_01
L_front_hand02_02 L_front_hand02_01
L_front_hand03_02 L_front_hand03_01
R_forearm R_humerus
R_front_hand R_forearm
R_weapon_bone R_forearm
R_front_hand01_01 R_front_hand
R_front_hand02_01 R_front_hand
R_front_hand03_01 R_front_hand
R_front_hand01_02 R_front_hand01_01
R_front_hand02_02 R_front_hand02_01
R_front_hand03_02 R_front_hand03_01
null_rope01_connect L_mid_tent01
Rope1_Seg01 null_rope01_connect
Rope1_Seg02 Rope1_Seg01
Rope1_Seg03 Rope1_Seg02
Rope1_Seg04 Rope1_Seg03
Rope1_Seg05 Rope1_Seg04
Rope1_Seg06 Rope1_Seg05
Rope1_Seg07 Rope1_Seg06
Rope1_Seg09 Rope1_Seg07
L_mid_hand01 Rope1_Seg09
L_mid_hand02 Rope1_Seg09
L_mid_hand03 Rope1_Seg09
null_rope02_connect R_mid_tent01
Rope2_Seg01 null_rope02_connect
Rope2_Seg02 Rope2_Seg01
Rope2_Seg03 Rope2_Seg02
Rope2_Seg04 Rope2_Seg03
Rope2_Seg05 Rope2_Seg04
Rope2_Seg06 Rope2_Seg05
Rope2_Seg07 Rope2_Seg06
Rope2_Seg09 Rope2_Seg07
R_mid_hand01 Rope2_Seg09
R_mid_hand02 Rope2_Seg09
R_mid_hand03 Rope2_Seg09
spine02 spine01
spine03 spine02
pelvis spine03
null_rope03_connect pelvis
null_rope04_connect pelvis
Rope3_Seg01 null_rope03_connect
Rope3_Seg02 Rope3_Seg01
Rope3_Seg03 Rope3_Seg02
Rope3_Seg04 Rope3_Seg03
Rope3_Seg05 Rope3_Seg04
Rope3_Seg06 Rope3_Seg05
Rope3_Seg07 Rope3_Seg06
Rope3_Seg08 Rope3_Seg07
Rope3_Seg09 Rope3_Seg08
R_rear_hand01 Rope3_Seg09
R_rear_hand02 Rope3_Seg09
R_rear_hand03 Rope3_Seg09
Rope4_Seg01 null_rope04_connect
Rope4_Seg02 Rope4_Seg01
Rope4_Seg03 Rope4_Seg02
Rope4_Seg04 Rope4_Seg03
Rope4_Seg05 Rope4_Seg04
Rope4_Seg06 Rope4_Seg05
Rope4_Seg07 Rope4_Seg06
Rope4_Seg08 Rope4_Seg07
Rope4_Seg09 Rope4_Seg08
L_rear_hand01 Rope4_Seg09
L_rear_hand02 Rope4_Seg09
L_rear_hand03 Rope4_Seg09
[BasePosition]
#SegmentName Tx, Ty, Tz, Rx, Ry, Rz, BoneLength
MASTER 0.000000 0.000000 0.000000 -90.000000 0.000000 0.000000 10.000000 
root 0.000000 0.000000 0.000000 0.000000 0.000000 0.000000 10.000000 
chest 0.000000 0.000000 0.000000 0.000000 0.000000 0.000000 10.000000 
L_mid_tent01 0.000000 0.000000 0.000000 0.000000 0.000000 0.000000 10.000000 
R_mid_tent01 0.000000 0.000000 0.000000 0.000000 0.000000 0.000000 10.000000 
spine01 0.000000 0.000000 0.000000 0.000000 0.000000 0.000000 10.000000 
Bip01_Neck 0.000000 0.000000 0.000000 0.000000 0.000000 0.000000 10.000000 
L_humerus 0.000000 0.000000 0.000000 0.000000 0.000000 0.000000 10.000000 
R_humerus 0.000000 0.000000 0.000000 0.000000 0.000000 0.000000 10.000000 
weapon_bone 0.000000 0.000000 0.000000 0.000000 0.000000 0.000000 10.000000 
Bip01_Head 0.000000 0.000000 0.000000 0.000000 0.000000 0.000000 10.000000 
eye_left_bone 0.000000 0.000000 0.000000 0.000000 0.000000 0.000000 10.000000 
eye_right_bone 0.000000 0.000000 0.000000 0.000000 0.000000 0.000000 10.000000 
L_forearm 0.000000 0.000000 0.000000 0.000000 0.000000 0.000000 10.000000 
L_front_hand 0.000000 0.000000 0.000000 0.000000 0.000000 0.000000 10.000000 
L_weapon_bone 0.000000 0.000000 0.000000 0.000000 0.000000 0.000000 10.000000 
L_front_hand01_01 0.000000 0.000000 0.000000 0.000000 0.000000 0.000000 10.000000 
L_front_hand02_01 0.000000 0.000000 0.000000 0.000000 0.000000 0.000000 10.000000 
L_front_hand03_01 0.000000 0.000000 0.000000 0.000000 0.000000 0.000000 10.000000 
L_front_hand01_02 0.000000 0.000000 0.000000 0.000000 0.000000 0.000000 10.000000 
L_front_hand02_02 0.000000 0.000000 0.000000 0.000000 0.000000 0.000000 10.000000 
L_front_hand03_02 0.000000 0.000000 0.000000 0.000000 0.000000 0.000000 10.000000 
R_forearm 0.000000 0.000000 0.000000 0.000000 0.000000 0.000000 10.000000 
R_front_hand 0.000000 0.000000 0.000000 0.000000 0.000000 0.000000 10.000000 
R_weapon_bone 0.000000 0.000000 0.000000 0.000000 0.000000 0.000000 10.000000 
R_front_hand01_01 0.000000 0.000000 0.000000 0.000000 0.000000 0.000000 10.000000 
R_front_hand02_01 0.000000 0.000000 0.000000 0.000000 0.000000 0.000000 10.000000 
R_front_hand03_01 0.000000 0.000000 0.000000 0.000000 0.000000 0.000000 10.000000 
R_front_hand01_02 0.000000 0.000000 0.000000 0.000000 0.000000 0.000000 10.000000 
R_front_hand02_02 0.000000 0.000000 0.000000 0.000000 0.000000 0.000000 10.000000 
R_front_hand03_02 0.000000 0.000000 0.000000 0.000000 0.000000 0.000000 10.000000 
null_rope01_connect 0.000000 0.000000 0.000000 0.000000 0.000000 0.000000 10.000000 
Rope1_Seg01 0.000000 0.000000 0.000000 0.000000 0.000000 0.000000 10.000000 
Rope1_Seg02 0.000000 0.000000 0.000000 0.000000 0.000000 0.000000 10.000000 
Rope1_Seg03 0.000000 0.000000 0.000000 0.000000 0.000000 0.000000 10.000000 
Rope1_Seg04 0.000000 0.000000 0.000000 0.000000 0.000000 0.000000 10.000000 
Rope1_Seg05 0.000000 0.000000 0.000000 0.000000 0.000000 0.000000 10.000000 
Rope1_Seg06 0.000000 0.000000 0.000000 0.000000 0.000000 0.000000 10.000000 
Rope1_Seg07 0.000000 0.000000 0.000000 0.000000 0.000000 0.000000 10.000000 
Rope1_Seg09 0.000000 0.000000 0.000000 0.000000 0.000000 0.000000 10.000000 
L_mid_hand01 0.000000 0.000000 0.000000 0.000000 0.000000 0.000000 10.000000 
L_mid_hand02 0.000000 0.000000 0.000000 0.000000 0.000000 0.000000 10.000000 
L_mid_hand03 0.000000 0.000000 0.000000 0.000000 0.000000 0.000000 10.000000 
null_rope02_connect 0.000000 0.000000 0.000000 0.000000 0.000000 0.000000 10.000000 
Rope2_Seg01 0.000000 0.000000 0.000000 0.000000 0.000000 0.000000 10.000000 
Rope2_Seg02 0.000000 0.000000 0.000000 0.000000 0.000000 0.000000 10.000000 
Rope2_Seg03 0.000000 0.000000 0.000000 0.000000 0.000000 0.000000 10.000000 
Rope2_Seg04 0.000000 0.000000 0.000000 0.000000 0.000000 0.000000 10.000000 
Rope2_Seg05 0.000000 0.000000 0.000000 0.000000 0.000000 0.000000 10.000000 
Rope2_Seg06 0.000000 0.000000 0.000000 0.000000 0.000000 0.000000 10.000000 
Rope2_Seg07 0.000000 0.000000 0.000000 0.000000 0.000000 0.000000 10.000000 
Rope2_Seg09 0.000000 0.000000 0.000000 0.000000 0.000000 0.000000 10.000000 
R_mid_hand01 0.000000 0.000000 0.000000 0.000000 0.000000 0.000000 10.000000 
R_mid_hand02 0.000000 0.000000 0.000000 0.000000 0.000000 0.000000 10.000000 
R_mid_hand03 0.000000 0.000000 0.000000 0.000000 0.000000 0.000000 10.000000 
spine02 0.000000 0.000000 0.000000 0.000000 0.000000 0.000000 10.000000 
spine03 0.000000 0.000000 0.000000 0.000000 0.000000 0.000000 10.000000 
pelvis 0.000000 0.000000 0.000000 0.000000 0.000000 0.000000 10.000000 
null_rope03_connect 0.000000 0.000000 0.000000 0.000000 0.000000 0.000000 10.000000 
null_rope04_connect 0.000000 0.000000 0.000000 0.000000 0.000000 0.000000 10.000000 
Rope3_Seg01 0.000000 0.000000 0.000000 0.000000 0.000000 0.000000 10.000000 
Rope3_Seg02 0.000000 0.000000 0.000000 0.000000 0.000000 0.000000 10.000000 
Rope3_Seg03 0.000000 0.000000 0.000000 0.000000 0.000000 0.000000 10.000000 
Rope3_Seg04 0.000000 0.000000 0.000000 0.000000 0.000000 0.000000 10.000000 
Rope3_Seg05 0.000000 0.000000 0.000000 0.000000 0.000000 0.000000 10.000000 
Rope3_Seg06 0.000000 0.000000 0.000000 0.000000 0.000000 0.000000 10.000000 
Rope3_Seg07 0.000000 0.000000 0.000000 0.000000 0.000000 0.000000 10.000000 
Rope3_Seg08 0.000000 0.000000 0.000000 0.000000 0.000000 0.000000 10.000000 
Rope3_Seg09 0.000000 0.000000 0.000000 0.000000 0.000000 0.000000 10.000000 
R_rear_hand01 0.000000 0.000000 0.000000 0.000000 0.000000 0.000000 10.000000 
R_rear_hand02 0.000000 0.000000 0.000000 0.000000 0.000000 0.000000 10.000000 
R_rear_hand03 0.000000 0.000000 0.000000 0.000000 0.000000 0.000000 10.000000 
Rope4_Seg01 0.000000 0.000000 0.000000 0.000000 0.000000 0.000000 10.000000 
Rope4_Seg02 0.000000 0.000000 0.000000 0.000000 0.000000 0.000000 10.000000 
Rope4_Seg03 0.000000 0.000000 0.000000 0.000000 0.000000 0.000000 10.000000 
Rope4_Seg04 0.000000 0.000000 0.000000 0.000000 0.000000 0.000000 10.000000 
Rope4_Seg05 0.000000 0.000000 0.000000 0.000000 0.000000 0.000000 10.000000 
Rope4_Seg06 0.000000 0.000000 0.000000 0.000000 0.000000 0.000000 10.000000 
Rope4_Seg07 0.000000 0.000000 0.000000 0.000000 0.000000 0.000000 10.000000 
Rope4_Seg08 0.000000 0.000000 0.000000 0.000000 0.000000 0.000000 10.000000 
Rope4_Seg09 0.000000 0.000000 0.000000 0.000000 0.000000 0.000000 10.000000 
L_rear_hand01 0.000000 0.000000 0.000000 0.000000 0.000000 0.000000 10.000000 
L_rear_hand02 0.000000 0.000000 0.000000 0.000000 0.000000 0.000000 10.000000 
L_rear_hand03 0.000000 0.000000 0.000000 0.000000 0.000000 0.000000 10.000000 
#Beginning of Data. Separated by tabs
#Fr	Tx	Ty	Tz	Rx	Ry	Rz	SF
[MASTER]
30 0.000000 0.000000 0.000000 0.001660 0.001660 0.001660 0.000000
31 0.000000 0.000000 0.000000 0.001660 0.001660 0.001660 0.000000
[root]
30 -16.502304 9.364140 1448.317383 -91.728889 -11.584497 -89.471619 1448.441650
31 -16.502304 9.364140 1448.317383 -91.728912 -11.584503 -89.471642 1448.441650
[chest]
30 -84.512650 -34.090519 0.000000 -2.144813 0.313244 176.732239 91.129311
31 -84.512650 -34.090519 0.000000 -2.144813 0.313244 176.732239 91.129311
[L_mid_tent01]
30 27.299511 22.177458 -249.918259 -28.266106 32.791584 -5.365355 252.381134
31 27.299511 22.177458 -249.918259 -28.266111 32.791592 -5.365358 252.381134
[R_mid_tent01]
30 23.228794 24.509907 226.238495 -156.204071 -32.814346 0.416457 228.744751
31 23.228794 24.509907 226.238495 -156.204071 -32.814350 0.416458 228.744751
[spine01]
30 -0.361383 -0.195265 0.000000 -0.000001 -0.000007 22.052340 0.410763
31 -0.361383 -0.195265 0.000000 -0.000001 -0.000007 22.052340 0.410763
[Bip01_Neck]
30 165.484543 71.581718 0.000119 175.896118 1.177290 24.871183 180.302734
31 165.484543 71.581718 0.000119 175.896118 1.177290 24.871187 180.302734
[L_humerus]
30 -13.983130 -135.272980 -120.471481 139.909653 88.317627 -130.290085 181.680161
31 -13.983130 -135.272980 -120.471481 139.909912 88.317978 -130.290192 181.680161
[R_humerus]
30 -13.983309 -135.273102 125.287651 133.576981 -87.684464 -45.901276 184.909012
31 -13.983309 -135.273102 125.287651 133.577194 -87.684715 -45.901428 184.909012
[weapon_bone]
30 235.964890 -300.705902 0.000000 0.000000 -89.951546 -128.212341 382.234833
31 235.964890 -300.705902 0.000000 0.000000 -89.951546 -128.212341 382.234833
[Bip01_Head]
30 193.865784 99.525146 7.890730 1.727521 4.534425 -43.429157 218.062973
31 193.865784 99.525146 7.890730 1.727521 4.534426 -43.429165 218.062973
[eye_left_bone]
30 -24.626970 125.451866 -64.772606 0.000000 -90.000000 -99.840431 143.318359
31 -24.626970 125.451866 -64.772606 0.000000 -90.000000 -99.840431 143.318359
[eye_right_bone]
30 -24.626970 125.451866 64.327362 0.000000 -89.965736 80.156380 143.117676
31 -24.626970 125.451866 64.327362 0.000000 -90.000000 80.156387 143.117676
[L_forearm]
30 322.776093 0.000000 -0.000119 0.000248 -0.002334 -102.125244 322.776093
31 322.776093 0.000000 -0.000119 0.000248 -0.002334 -102.125252 322.776093
[L_front_hand]
30 241.149185 -0.042021 -3.300071 -179.659958 -2.242151 -0.019832 241.171753
31 241.149185 -0.042021 -3.300071 -179.659958 -2.242151 -0.019832 241.171753
[L_weapon_bone]
30 156.183838 0.000000 0.000000 0.000014 0.000007 0.000001 156.183838
31 156.183838 0.000000 0.000000 0.000014 0.000007 0.000001 156.183838
[L_front_hand01_01]
30 86.095154 20.947098 -0.655860 -0.366594 -0.477154 75.385574 88.609184
31 86.095154 20.947098 -0.655860 -0.366594 -0.477154 75.385582 88.609184
[L_front_hand02_01]
30 86.935165 -11.437475 24.513514 154.399796 -59.883835 -61.369587 91.046425
31 86.935165 -11.437475 24.513514 154.399826 -59.883846 -61.369614 91.046425
[L_front_hand03_01]
30 86.637497 -14.123976 -20.424902 -153.913849 58.118122 -62.702866 90.126129
31 86.637497 -14.123976 -20.424902 -153.913864 58.118141 -62.702885 90.126129
[L_front_hand01_02]
30 71.020905 -0.000179 0.000030 0.000334 -0.002323 -106.379684 71.020905
31 71.020905 -0.000179 0.000030 0.000334 -0.002323 -106.379700 71.020905
[L_front_hand02_02]
30 71.020927 -0.000119 0.000060 0.000334 -0.002323 -106.379684 71.020927
31 71.020927 -0.000119 0.000060 0.000334 -0.002323 -106.379700 71.020927
[L_front_hand03_02]
30 71.020905 -0.000060 0.000060 0.000334 -0.002323 -106.379684 71.020905
31 71.020905 -0.000060 0.000060 0.000334 -0.002323 -106.379700 71.020905
[R_forearm]
30 322.776428 -0.000060 0.000030 0.208463 0.026596 -98.191154 322.776428
31 322.776428 -0.000060 0.000030 0.208463 0.026596 -98.191162 322.776428
[R_front_hand]
30 238.847015 -0.006795 2.210259 -0.270529 1.703932 2.322530 238.857239
31 238.847015 -0.006795 2.210259 -0.270529 1.703932 2.322531 238.857239
[R_weapon_bone]
30 155.664093 0.002503 -0.000030 0.003487 0.001180 -90.988930 155.664078
31 155.664093 0.002503 -0.000030 0.003487 0.001180 -90.988930 155.664078
[R_front_hand01_01]
30 87.624611 14.231146 22.918642 -154.633499 -59.950619 61.746044 91.683487
31 87.624611 14.231146 22.918642 -154.633499 -59.950634 61.746063 91.683487
[R_front_hand02_01]
30 89.356956 14.367283 -19.491137 154.602661 58.302849 63.744389 92.579636
31 89.356956 14.367283 -19.491137 154.602676 58.302864 63.744400 92.579636
[R_front_hand03_01]
30 87.286232 -22.307278 -0.143439 0.162155 -0.423168 -75.767921 90.091743
31 87.286232 -22.307278 -0.143439 0.162155 -0.423168 -75.767921 90.091743
[R_front_hand01_02]
30 71.020905 0.000060 0.000119 0.002323 -0.000334 106.381714 71.020905
31 71.020905 0.000060 0.000119 0.002323 -0.000334 106.381729 71.020905
[R_front_hand02_02]
30 71.020844 -0.000030 -0.000119 0.002323 -0.000334 106.381714 71.020836
31 71.020844 -0.000030 -0.000119 0.002323 -0.000334 106.381729 71.020836
[R_front_hand03_02]
30 71.020905 0.000000 0.000030 0.002323 -0.000334 106.381714 71.020905
31 71.020905 0.000000 0.000030 0.002323 -0.000334 106.381729 71.020905
[null_rope01_connect]
30 328.732483 0.000000 -0.000238 -119.541275 -47.109665 -141.366821 328.732483
31 328.732483 0.000000 -0.000238 -119.541290 -47.109673 -141.366821 328.732483
[Rope1_Seg01]
30 0.000000 0.000000 0.000000 11.555268 9.808315 -107.946129 0.000000
31 0.000000 0.000000 0.000000 17.123472 5.375299 -107.456497 0.000000
[Rope1_Seg02]
30 139.999863 -0.000179 0.000000 0.644119 -1.618942 1.441854 139.999863
31 139.999863 -0.000179 0.000000 -0.245126 -1.335261 1.651605 139.999863
[Rope1_Seg03]
30 139.999924 0.000060 -0.000060 -4.487491 -0.952633 4.083679 139.999924
31 139.999924 0.000060 -0.000060 -1.631654 -1.539230 2.981995 139.999924
[Rope1_Seg04]
30 139.999924 -0.000060 -0.000119 -0.017691 -3.031167 3.347106 139.999924
31 139.999924 -0.000060 -0.000119 -5.336326 -2.205725 7.785773 139.999924
[Rope1_Seg05]
30 139.999832 0.000119 -0.000060 30.447266 -6.496830 -14.194180 139.999832
31 139.999832 0.000119 -0.000060 17.245195 -0.866551 -12.877001 139.999832
[Rope1_Seg06]
30 139.999954 0.000119 -0.000060 9.177031 -3.837059 -2.764008 139.999954
31 139.999954 0.000119 -0.000060 17.123394 -2.510288 -8.587585 139.999954
[Rope1_Seg07]
30 139.999985 0.000060 0.000000 3.766173 -1.935081 -0.848895 139.999985
31 139.999985 0.000060 0.000000 7.088177 -1.888765 -2.528998 139.999985
[Rope1_Seg09]
30 121.602913 0.000119 -0.000089 -89.793175 -1.359789 0.847147 121.602913
31 121.602913 0.000119 -0.000089 -89.793175 -1.359789 0.847147 121.602913
[L_mid_hand01]
30 103.859421 1.038730 8.195221 106.855484 -31.239275 -9.461397 104.187431
31 103.859421 1.038730 8.195221 106.855484 -31.239275 -9.461397 104.187431
[L_mid_hand02]
30 105.572853 -4.139662 -10.864139 -142.331345 25.752670 -28.774628 106.211075
31 105.572853 -4.139662 -10.864139 -142.331345 25.752670 -28.774628 106.211075
[L_mid_hand03]
30 104.641464 17.579376 -3.913581 -16.122810 9.734291 34.223598 106.179977
31 104.641464 17.579376 -3.913581 -16.122810 9.734291 34.223598 106.179977
[null_rope02_connect]
30 328.732849 0.000179 -0.000119 -116.029831 50.874489 -29.531246 328.732849
31 328.732849 0.000179 -0.000119 -116.029861 50.874500 -29.531256 328.732849
[Rope2_Seg01]
30 -0.000038 0.000153 0.000000 90.956650 11.462922 -62.634708 0.000157
31 -0.000038 0.000153 0.000000 81.055664 4.802427 -66.312309 0.000157
[Rope2_Seg02]
30 139.999741 -0.000060 -0.000119 -9.553057 -0.274656 4.537071 139.999756
31 139.999741 -0.000060 -0.000119 -2.694679 -2.138738 2.625103 139.999756
[Rope2_Seg03]
30 140.000107 0.000030 0.000000 -8.298390 -0.549320 4.579957 140.000107
31 140.000107 0.000030 0.000000 -4.127933 -5.599036 5.655944 140.000107
[Rope2_Seg04]
30 139.999802 0.000000 -0.000060 2.465687 -0.639204 -1.021311 139.999802
31 139.999802 0.000000 -0.000060 2.122547 4.589470 -3.676332 139.999802
[Rope2_Seg05]
30 139.999985 -0.000060 0.000119 3.135119 -0.152654 -1.590783 139.999985
31 139.999985 -0.000060 0.000119 5.332627 6.360515 -5.759179 139.999985
[Rope2_Seg06]
30 139.999893 -0.000030 -0.000119 0.704317 -0.114925 -0.340322 139.999893
31 139.999893 -0.000030 -0.000119 2.534053 1.786368 -1.947820 139.999893
[Rope2_Seg07]
30 139.999893 0.000060 -0.000060 0.397463 -0.076759 -0.201393 139.999893
31 139.999893 0.000060 -0.000060 1.620130 0.922392 -1.098244 139.999893
[Rope2_Seg09]
30 121.338966 0.000089 -0.000060 33.793236 -1.359788 -0.847141 121.338966
31 121.338966 0.000089 -0.000060 33.793236 -1.359788 -0.847141 121.338966
[R_mid_hand01]
30 104.680779 11.144459 -10.335981 -41.523792 25.424656 28.595957 105.778534
31 104.680779 11.144459 -10.335981 -41.523792 25.424656 28.595957 105.778534
[R_mid_hand02]
30 104.070427 2.443552 8.231699 72.847389 -32.746803 10.013901 104.424065
31 104.070427 2.443552 8.231699 72.847389 -32.746803 10.013901 104.424065
[R_mid_hand03]
30 106.028137 -11.221827 -5.996406 -167.901306 10.259192 -37.009720 106.788818
31 106.028137 -11.221827 -5.996406 -167.901306 10.259192 -37.009720 106.788818
[spine02]
30 129.756927 0.001550 0.000119 0.360061 -4.044797 -12.915058 129.756927
31 129.756927 0.001550 0.000119 0.360061 -4.044798 -12.915060 129.756927
[spine03]
30 78.613846 0.087372 -4.898873 1.896495 3.831288 16.473045 78.766380
31 78.613846 0.087372 -4.898873 1.896495 3.831288 16.473051 78.766380
[pelvis]
30 169.435242 0.051022 0.000000 -0.060465 -0.180225 14.087930 169.435257
31 169.435242 0.051022 0.000000 -0.060465 -0.180225 14.087932 169.435257
[null_rope03_connect]
30 -1.257226 -2.466202 137.391083 156.329987 -89.381348 -94.430771 137.418976
31 -1.257226 -2.466202 137.391083 156.330505 -89.382614 -94.432030 137.418976
[null_rope04_connect]
30 -1.259640 -2.480268 -137.844437 156.329987 -89.381348 -94.430771 137.872513
31 -1.259640 -2.480268 -137.844437 156.330505 -89.382614 -94.432030 137.872513
[Rope3_Seg01]
30 0.000010 0.000038 -0.000114 -127.918365 41.339596 -67.354919 0.000121
31 0.000010 0.000038 -0.000114 -131.237869 35.537632 -73.584915 0.000121
[Rope3_Seg02]
30 139.999924 -0.000119 0.000060 0.772083 10.922251 -2.389005 139.999924
31 139.999924 -0.000119 0.000060 0.920511 7.839458 -2.002625 139.999924
[Rope3_Seg03]
30 139.999924 -0.000119 0.000119 1.864055 13.573041 -3.149252 139.999924
31 139.999924 -0.000119 0.000119 1.585008 9.886932 -2.706253 139.999924
[Rope3_Seg04]
30 139.999924 0.000119 0.000000 5.936630 24.710026 -4.402273 139.999924
31 139.999924 0.000119 0.000000 4.811916 21.433014 -4.751881 139.999924
[Rope3_Seg05]
30 139.999924 -0.000238 0.000060 1.620511 2.931049 -3.470356 139.999924
31 139.999924 -0.000238 0.000060 1.152550 1.966472 -3.001319 139.999924
[Rope3_Seg06]
30 139.999893 -0.000119 -0.000060 -3.767726 -17.970970 1.223906 139.999893
31 139.999893 -0.000119 -0.000060 -3.684121 -17.380713 2.567348 139.999893
[Rope3_Seg07]
30 139.999771 0.000060 -0.000119 -0.476927 -10.051394 -0.090434 139.999771
31 139.999771 0.000060 -0.000119 -0.282712 -6.910821 0.360606 139.999771
[Rope3_Seg08]
30 139.999985 -0.000060 0.000000 0.403822 -3.910009 -0.328831 139.999985
31 139.999985 -0.000060 0.000000 0.327850 -2.995818 0.012874 139.999985
[Rope3_Seg09]
30 90.185997 -0.000179 -0.000060 89.793228 -1.359877 -0.847183 90.185997
31 90.185997 -0.000179 -0.000060 89.793228 -1.359877 -0.847183 90.185997
[R_rear_hand01]
30 103.366196 -6.073594 -10.757982 -161.551193 16.666374 -30.088671 104.101845
31 103.366196 -6.073594 -10.757982 -161.551193 16.666374 -30.088671 104.101845
[R_rear_hand02]
30 100.509819 12.039542 -7.992327 -34.280552 19.289745 28.875523 101.543350
31 100.509819 12.039542 -7.992327 -34.280552 19.289745 28.875523 101.543350
[R_rear_hand03]
30 101.539970 5.215704 5.435467 83.366440 -30.933914 7.284830 101.819031
31 101.539970 5.215704 5.435467 83.366440 -30.933914 7.284830 101.819031
[Rope4_Seg01]
30 0.000010 0.000038 -0.000114 67.646019 34.200283 -68.758179 0.000121
31 0.000010 0.000038 -0.000114 63.558136 29.064617 -69.287277 0.000121
[Rope4_Seg02]
30 139.999985 0.000060 0.000119 -1.093569 -14.050165 -3.856024 139.999985
31 139.999985 0.000060 0.000119 -0.336483 -14.033831 -5.111098 139.999985
[Rope4_Seg03]
30 139.999924 0.000000 -0.000238 0.267449 -17.899960 -5.820575 139.999924
31 139.999924 0.000000 -0.000238 0.569149 -16.429134 -6.454970 139.999924
[Rope4_Seg04]
30 139.999985 0.000000 0.000119 3.119523 -25.194857 -12.895488 139.999985
31 139.999985 0.000000 0.000119 2.506944 -22.516562 -12.209516 139.999985
[Rope4_Seg05]
30 139.999802 -0.000060 -0.000119 1.689615 -5.948769 0.493326 139.999802
31 139.999802 -0.000060 -0.000119 0.979258 -7.692254 -2.225564 139.999802
[Rope4_Seg06]
30 139.999924 0.000000 0.000060 4.326164 13.062371 14.971974 139.999924
31 139.999924 0.000000 0.000060 2.547715 7.240882 8.646770 139.999924
[Rope4_Seg07]
30 139.999802 0.000000 0.000000 2.113612 14.352210 14.659070 139.999802
31 139.999802 0.000000 0.000000 2.920138 15.113396 14.382635 139.999802
[Rope4_Seg08]
30 139.999924 0.000000 0.000119 -1.884205 5.707064 6.642049 139.999924
31 139.999924 0.000000 0.000119 -1.392843 5.997285 6.420382 139.999924
[Rope4_Seg09]
30 90.185791 0.000060 0.000060 -135.617828 2.228885 0.850567 90.185791
31 90.185791 0.000060 0.000060 -135.617828 2.228885 0.850567 90.185791
[L_rear_hand01]
30 101.696655 -8.392275 -7.654577 -34.454281 -18.946800 151.655121 102.329041
31 101.696655 -8.392275 -7.654577 -34.454281 -18.946800 151.655121 102.329041
[L_rear_hand02]
30 102.726799 -1.568258 5.773216 83.407906 30.330435 172.796509 102.900848
31 102.726799 -1.568258 5.773216 83.407906 30.330435 172.796509 102.900848
[L_rear_hand03]
30 104.552910 9.721220 -10.420293 -161.379868 -16.473232 -150.512238 105.519653
31 104.552910 9.721220 -10.420293 -161.379868 -16.473232 -150.512238 105.519653
